<svg width="1368" height="3541" viewBox="0 0 1368 3541" fill="none" xmlns="http://www.w3.org/2000/svg">
<path opacity="0.2" d="M1026.5 554.5C1054.5 297.3 1266.17 123 1368.5 68H1488L1519 1543.5C1419.33 1440.5 1237.3 1197.8 1306.5 1051C1393 867.5 991.5 876 1026.5 554.5Z" fill="#985EFF"/>
<path opacity="0.2" d="M240.193 2153.52C151.058 2396.4 -96.3631 2514.57 -208.932 2543.3L-324.913 2514.52L0.44374 1075C72.3629 1198.98 190.57 1478.38 88.0439 1604.19C-40.1134 1761.45 351.61 1849.92 240.193 2153.52Z" fill="#985EFF"/>
<path opacity="0.2" d="M1193.94 3072.49C1291.81 3311.99 1543.35 3421.12 1656.89 3445.76L1771.75 3412.79L1394.47 1986C1327.09 2112.5 1219.08 2396 1326.09 2518.01C1459.86 2670.53 1071.6 2773.13 1193.94 3072.49Z" fill="#985EFF"/>
<path opacity="0.2" d="M228.42 196.575C316.443 -46.7109 203.057 -296.365 135.361 -390.781L28.0505 -443.36L-649 867.999C-514.18 819.358 -243.927 681.507 -241.477 519.233C-238.415 316.391 118.392 500.682 228.42 196.575Z" fill="#985EFF"/>
</svg>
