<svg width="535" height="382" viewBox="0 0 535 382" fill="none" xmlns="http://www.w3.org/2000/svg">
<g clip-path="url(#clip0)">
<path d="M79.3131 270.789C78.8742 270.133 78.2949 269.579 77.616 269.168C76.9372 268.757 76.1753 268.498 75.384 268.409C74.5927 268.32 73.7913 268.403 73.0363 268.653C72.2812 268.903 71.5908 269.314 71.0137 269.856L53.8116 261.087L54.8809 270.965L71.0525 277.778C72.0387 278.675 73.3239 279.183 74.6645 279.207C76.0051 279.231 77.3079 278.768 78.3262 277.907C79.3444 277.045 80.0073 275.845 80.1892 274.533C80.3711 273.221 80.0594 271.889 79.3131 270.789H79.3131Z" fill="#A0616A"/>
<path d="M64.0255 274.765C63.7143 274.906 63.3764 274.981 63.034 274.984C62.6916 274.988 62.3522 274.92 62.0379 274.786L45.6984 267.786C40.1115 265.393 35.5948 261.078 32.9884 255.643L24.3983 237.736C23.7644 236.932 23.2972 236.012 23.0235 235.029C22.7498 234.046 22.6749 233.02 22.8031 232.009C22.9314 230.997 23.2603 230.021 23.7709 229.135C24.2816 228.249 24.9641 227.472 25.7793 226.846C26.5945 226.221 27.5265 225.761 28.522 225.492C29.5175 225.223 30.5569 225.15 31.5808 225.278C32.6048 225.406 33.5931 225.732 34.4894 226.237C35.3857 226.743 36.1723 227.418 36.8042 228.224L51.9036 255.89L65.8458 266.291C66.2449 266.59 66.5413 267.003 66.695 267.474C66.8488 267.945 66.8524 268.451 66.7053 268.924L65.3369 273.289C65.1899 273.757 64.902 274.17 64.5114 274.472C64.3617 274.588 64.1986 274.687 64.0255 274.765Z" fill="#CCCCCC"/>
<path d="M24.0203 216.677C31.3686 216.677 37.3256 210.794 37.3256 203.537C37.3256 196.28 31.3686 190.397 24.0203 190.397C16.672 190.397 10.715 196.28 10.715 203.537C10.715 210.794 16.672 216.677 24.0203 216.677Z" fill="#A0616A"/>
<path d="M29.4097 375.91L36.0507 375.909L39.2105 350.61L29.408 350.611L29.4097 375.91Z" fill="#A0616A"/>
<path d="M48.8595 381.999L27.9865 382L27.9862 374.036L40.7946 374.035C42.9335 374.035 44.9848 374.874 46.4972 376.368C48.0097 377.861 48.8595 379.887 48.8596 381.999L48.8595 381.999Z" fill="#2F2E41"/>
<path d="M7.7407 375.91L14.3817 375.909L17.5416 350.61L7.73907 350.611L7.7407 375.91Z" fill="#A0616A"/>
<path d="M27.1906 381.999L6.31756 382L6.3172 374.036L19.1256 374.035C21.2645 374.035 23.3158 374.874 24.8283 376.368C26.3407 377.861 27.1905 379.887 27.1906 381.999L27.1906 381.999Z" fill="#2F2E41"/>
<path d="M5.42146 368.668C5.19262 368.41 5.02227 368.107 4.92184 367.778C4.8214 367.45 4.79319 367.104 4.8391 366.764L16.467 280.638L45.3564 285.483L48.4396 283.656L40.4668 365.374C40.4004 365.925 40.1435 366.437 39.7392 366.824C39.335 367.21 38.8082 367.447 38.2478 367.494L29.5001 368.214C29.1524 368.243 28.8024 368.197 28.4739 368.081C28.1454 367.965 27.8461 367.78 27.5962 367.539C27.3462 367.299 27.1515 367.008 27.0251 366.687C26.8988 366.365 26.8438 366.021 26.8639 365.677L29.1286 326.76C29.1326 326.694 29.1117 326.629 29.0698 326.577C29.0279 326.526 28.968 326.491 28.9018 326.48C28.8356 326.47 28.7678 326.484 28.7114 326.52C28.6551 326.556 28.6142 326.611 28.5967 326.675L17.3922 367.709C17.2521 368.22 16.9457 368.671 16.5204 368.993C16.0951 369.314 15.5743 369.489 15.0385 369.49H7.2556C6.90823 369.49 6.56487 369.417 6.24853 369.275C5.9322 369.133 5.65021 368.926 5.42146 368.668Z" fill="#2F2E41"/>
<path d="M25.4286 286.667C25.097 286.37 24.6708 286.198 24.2238 286.179C23.7769 286.161 23.3376 286.298 22.9821 286.566L17.2063 291.003C16.892 291.245 16.5224 291.407 16.1297 291.475C15.7371 291.543 15.3336 291.515 14.9546 291.393C14.5755 291.272 14.2325 291.06 13.9557 290.776C13.6789 290.493 13.4767 290.147 13.3669 289.769C10.5338 279.97 4.11516 255.305 5.69642 237.946C6.59273 228.106 15.1967 220.628 24.8762 221.255C31.4936 221.691 35.8472 225.461 37.8158 232.46C42.6494 249.645 47.9614 281.168 48.9771 287.313C49.0573 287.79 48.9897 288.279 48.7831 288.718C48.5766 289.156 48.2407 289.522 47.8197 289.768C45.0869 291.388 41.9646 292.256 38.7773 292.281C34.9207 292.281 30.2965 290.955 25.4286 286.667Z" fill="#CCCCCC"/>
<path d="M27.6079 292.78C27.6726 291.996 27.5625 291.208 27.2853 290.47C27.008 289.733 26.5705 289.065 26.0035 288.513C25.4364 287.96 24.7537 287.538 24.0033 287.274C23.253 287.011 22.4532 286.913 21.6605 286.988L13.604 269.604L8.27261 278.029L16.7405 293.245C16.956 294.552 17.6495 295.735 18.6895 296.571C19.7295 297.407 21.0438 297.837 22.3833 297.779C23.7229 297.722 24.9946 297.182 25.9575 296.26C26.9205 295.339 27.5077 294.1 27.6079 292.78Z" fill="#A0616A"/>
<path d="M13.0939 286.592C12.7609 286.513 12.4484 286.366 12.1767 286.16C11.905 285.954 11.6802 285.694 11.5169 285.397L3.03395 269.931C0.132897 264.643 -0.724614 258.495 0.62092 252.629L5.05139 233.304C5.05541 232.285 5.26277 231.276 5.66162 230.337C6.06048 229.397 6.643 228.544 7.37588 227.826C8.10877 227.109 8.97766 226.541 9.93287 226.155C10.8881 225.77 11.9109 225.574 12.9428 225.579C13.9747 225.584 14.9956 225.789 15.9469 226.184C16.8983 226.579 17.7615 227.155 18.4872 227.88C19.213 228.604 19.787 229.463 20.1766 230.407C20.5661 231.35 20.7635 232.361 20.7574 233.38L15.3502 264.352L19.8214 281.033C19.9486 281.512 19.9238 282.017 19.7505 282.482C19.5772 282.946 19.2638 283.346 18.8525 283.629L15.048 286.23C14.6399 286.508 14.1554 286.658 13.6592 286.657C13.4688 286.658 13.2791 286.635 13.0939 286.592Z" fill="#CCCCCC"/>
<path opacity="0.2" d="M19.6781 246.441L14.8026 266.771L21.845 283.891L16.9695 267.306L19.6781 246.441Z" fill="black"/>
<path d="M16.4276 214.342C15.2441 214.364 14.0679 214.153 12.9671 213.724C12.4827 213.539 11.9799 213.388 11.4965 213.203C7.22675 211.574 4.41414 207.083 4.3134 202.564C4.21267 198.045 6.58251 193.658 10.1015 190.768C13.6205 187.877 18.1786 186.393 22.7427 186.05C27.6589 185.68 33.1948 186.911 35.942 190.954C36.6732 192.031 37.1846 193.337 36.7513 194.636C36.6215 195.028 36.3897 195.38 36.0791 195.656C34.8523 196.734 33.6292 195.923 32.3785 195.852C30.6595 195.753 29.1155 197.127 28.5606 198.737C28.0057 200.347 28.2499 202.119 28.698 203.761C29.0394 204.749 29.2545 205.775 29.3386 206.816C29.3748 207.338 29.2754 207.86 29.0499 208.333C28.8244 208.806 28.4802 209.215 28.0501 209.52C26.9759 210.161 25.5652 209.79 24.4904 209.15C23.4156 208.51 22.4869 207.62 21.3259 207.149C20.1649 206.677 18.6051 206.782 17.9294 207.827C17.7146 208.207 17.5693 208.621 17.5 209.051C16.8942 211.777 17.0334 211.616 16.4276 214.342L16.4276 214.342Z" fill="#2F2E41"/>
<path d="M410.266 123.305H81.4396C80.1871 123.306 78.9862 123.798 78.1005 124.673C77.2148 125.547 76.7168 126.733 76.7156 127.97V348.024C76.7168 349.261 77.2148 350.447 78.1005 351.321C78.9862 352.196 80.1871 352.688 81.4396 352.689H410.266C410.949 352.689 411.624 352.542 412.244 352.26C412.864 351.977 413.415 351.565 413.858 351.052C413.895 351.012 413.93 350.969 413.961 350.923C414.243 350.583 414.471 350.202 414.638 349.794C414.876 349.234 414.997 348.632 414.995 348.024V211.039H413.647V348.024C413.647 348.674 413.453 349.311 413.089 349.853C412.765 350.331 412.325 350.72 411.81 350.988C411.333 351.231 410.803 351.358 410.266 351.357H81.4396C80.5448 351.356 79.6869 351.004 79.0542 350.379C78.4215 349.755 78.0655 348.907 78.0644 348.024V127.97C78.0655 127.087 78.4215 126.24 79.0542 125.615C79.6869 124.99 80.5448 124.638 81.4396 124.637H410.266C411.162 124.637 412.021 124.988 412.655 125.613C413.289 126.238 413.645 127.086 413.647 127.97V157.539H414.995V127.97C414.994 126.733 414.495 125.546 413.608 124.671C412.722 123.797 411.52 123.305 410.266 123.305Z" fill="#3F3D56"/>
<path d="M414.317 142.005H77.388V143.338H414.317V142.005Z" fill="#3F3D56"/>
<path d="M88.8666 137.31C91.104 137.31 92.9178 135.519 92.9178 133.31C92.9178 131.1 91.104 129.309 88.8666 129.309C86.6291 129.309 84.8153 131.1 84.8153 133.31C84.8153 135.519 86.6291 137.31 88.8666 137.31Z" fill="#CCCCCC"/>
<path d="M100.514 137.31C102.751 137.31 104.565 135.519 104.565 133.31C104.565 131.1 102.751 129.309 100.514 129.309C98.2765 129.309 96.4627 131.1 96.4627 133.31C96.4627 135.519 98.2765 137.31 100.514 137.31Z" fill="#CCCCCC"/>
<path d="M112.161 137.31C114.399 137.31 116.213 135.519 116.213 133.31C116.213 131.1 114.399 129.309 112.161 129.309C109.924 129.309 108.11 131.1 108.11 133.31C108.11 135.519 109.924 137.31 112.161 137.31Z" fill="#CCCCCC"/>
<path d="M193.534 325.717C192.14 325.71 190.769 325.361 189.546 324.699C188.322 324.038 187.286 323.085 186.529 321.928C185.772 320.771 185.32 319.446 185.213 318.073C185.105 316.7 185.346 315.322 185.914 314.064L195.566 292.798C187.965 286.158 181.882 277.997 177.721 268.856C173.561 259.715 171.419 249.804 171.437 239.782C171.437 200.629 203.691 168.774 243.338 168.774C282.985 168.774 315.239 200.629 315.239 239.782C315.239 278.936 282.985 310.79 243.338 310.79C236.402 310.783 229.505 309.78 222.862 307.812L198.23 324.28C196.846 325.213 195.21 325.713 193.534 325.717ZM243.338 178.682C230.507 178.675 217.991 182.61 207.526 189.942C197.06 197.274 189.164 207.64 184.931 219.602C180.698 231.565 180.338 244.531 183.901 256.705C187.465 268.878 194.775 279.655 204.818 287.542L207.858 289.937L197.474 312.82L221.305 296.888L223.658 297.668C232.158 300.488 241.178 301.449 250.092 300.485C259.006 299.52 267.601 296.653 275.282 292.082C282.962 287.51 289.544 281.344 294.572 274.011C299.599 266.678 302.952 258.353 304.398 249.612C305.843 240.872 305.347 231.926 302.944 223.394C300.54 214.862 296.287 206.948 290.479 200.201C284.67 193.454 277.446 188.035 269.306 184.319C261.166 180.603 252.305 178.68 243.338 178.682Z" fill="#3F3D56"/>
<path d="M243.338 246.388C248.879 246.388 253.371 241.952 253.371 236.48C253.371 231.007 248.879 226.571 243.338 226.571C237.797 226.571 233.305 231.007 233.305 236.48C233.305 241.952 237.797 246.388 243.338 246.388Z" fill="#3F3D56"/>
<path d="M214.912 246.388C220.453 246.388 224.945 241.952 224.945 236.48C224.945 231.007 220.453 226.571 214.912 226.571C209.371 226.571 204.879 231.007 204.879 236.48C204.879 241.952 209.371 246.388 214.912 246.388Z" fill="#3F3D56"/>
<path d="M271.764 246.388C277.305 246.388 281.797 241.952 281.797 236.48C281.797 231.007 277.305 226.571 271.764 226.571C266.223 226.571 261.731 231.007 261.731 236.48C261.731 241.952 266.223 246.388 271.764 246.388Z" fill="#3F3D56"/>
<path d="M495.63 197.264H400.287C399.137 197.264 398.035 196.813 397.222 196.01C396.409 195.207 395.953 194.119 395.953 192.984C395.953 191.849 396.409 190.76 397.222 189.957C398.035 189.155 399.137 188.704 400.287 188.704H495.63C496.78 188.704 497.882 189.155 498.695 189.957C499.507 190.76 499.964 191.849 499.964 192.984C499.964 194.119 499.507 195.207 498.695 196.01C497.882 196.813 496.78 197.264 495.63 197.264Z" fill="#CCCCCC"/>
<path d="M433.332 179.074H400.287C399.137 179.074 398.035 178.623 397.222 177.82C396.409 177.018 395.953 175.929 395.953 174.794C395.953 173.659 396.409 172.57 397.222 171.768C398.035 170.965 399.137 170.514 400.287 170.514H433.332C434.481 170.514 435.584 170.965 436.396 171.768C437.209 172.57 437.666 173.659 437.666 174.794C437.666 175.929 437.209 177.018 436.396 177.82C435.584 178.623 434.481 179.074 433.332 179.074Z" fill="#CCCCCC"/>
<path d="M357.102 202.479C367.275 202.479 375.521 194.335 375.521 184.289C375.521 174.243 367.275 166.099 357.102 166.099C346.93 166.099 338.684 174.243 338.684 184.289C338.684 194.335 346.93 202.479 357.102 202.479Z" fill="#7F39FB"/>
<path d="M505.187 156.469H333.46C331.019 156.473 328.679 157.432 326.952 159.137C325.226 160.842 324.255 163.153 324.251 165.564V203.014C324.255 205.425 325.226 207.736 326.952 209.441C328.679 211.146 331.019 212.105 333.46 212.109H505.187C507.628 212.105 509.969 211.146 511.695 209.441C513.422 207.736 514.393 205.425 514.396 203.014V165.564C514.393 163.153 513.422 160.842 511.695 159.137C509.969 157.432 507.628 156.473 505.187 156.469ZM513.313 203.014C513.31 205.141 512.453 207.181 510.93 208.685C509.407 210.19 507.341 211.036 505.187 211.039H333.46C331.306 211.036 329.241 210.19 327.717 208.685C326.194 207.181 325.337 205.141 325.335 203.014V165.564C325.337 163.437 326.194 161.397 327.717 159.893C329.241 158.388 331.306 157.542 333.46 157.539H505.187C507.341 157.542 509.407 158.388 510.93 159.893C512.453 161.397 513.31 163.437 513.313 165.564V203.014Z" fill="#3F3D56"/>
<path d="M513.313 171.449C520.194 171.449 525.773 165.94 525.773 159.144C525.773 152.349 520.194 146.84 513.313 146.84C506.432 146.84 500.853 152.349 500.853 159.144C500.853 165.94 506.432 171.449 513.313 171.449Z" fill="#7F39FB"/>
<path d="M512.93 166.065C512.88 166.015 512.84 165.956 512.812 165.891C512.785 165.826 512.771 165.757 512.771 165.686V152.068C512.771 151.926 512.828 151.79 512.93 151.689C513.031 151.589 513.169 151.533 513.313 151.533C513.457 151.533 513.594 151.589 513.696 151.689C513.797 151.79 513.855 151.926 513.855 152.068V165.686C513.855 165.792 513.823 165.896 513.763 165.983C513.704 166.071 513.619 166.14 513.52 166.18C513.421 166.221 513.312 166.232 513.207 166.211C513.102 166.19 513.006 166.139 512.93 166.065Z" fill="white"/>
<path d="M506.035 159.255C505.959 159.18 505.908 159.085 505.887 158.981C505.866 158.878 505.876 158.77 505.917 158.672C505.958 158.574 506.028 158.491 506.117 158.432C506.206 158.373 506.311 158.342 506.418 158.342H520.208C520.352 158.342 520.489 158.398 520.591 158.499C520.693 158.599 520.75 158.735 520.75 158.877C520.75 159.019 520.693 159.155 520.591 159.255C520.489 159.355 520.352 159.412 520.208 159.412H506.418C506.347 159.412 506.276 159.398 506.211 159.371C506.145 159.344 506.085 159.305 506.035 159.255Z" fill="white"/>
<path d="M528.228 322.695H502.22C502.22 323.434 475.416 324.033 475.416 324.033C474.995 324.346 474.612 324.705 474.273 325.103C473.255 326.302 472.698 327.818 472.702 329.383V330.453C472.702 332.226 473.416 333.927 474.686 335.181C475.956 336.435 477.678 337.139 479.473 337.14H528.228C530.024 337.139 531.745 336.433 533.015 335.18C534.284 333.926 534.998 332.226 535 330.453V329.383C534.998 327.61 534.283 325.91 533.014 324.657C531.745 323.403 530.024 322.698 528.228 322.695Z" fill="#3F3D56"/>
<path d="M507.64 336.874H500.598V381.814H507.64V336.874Z" fill="#3F3D56"/>
<path d="M527.684 381.57C527.684 382.321 517.012 381.86 503.848 381.86C490.684 381.86 480.012 382.321 480.012 381.57C480.012 380.818 490.684 374.859 503.848 374.859C517.012 374.859 527.684 380.818 527.684 381.57Z" fill="#3F3D56"/>
<path d="M506.378 262.472C514.756 262.472 521.547 255.766 521.547 247.492C521.547 239.219 514.756 232.513 506.378 232.513C498.001 232.513 491.21 239.219 491.21 247.492C491.21 255.766 498.001 262.472 506.378 262.472Z" fill="#2F2E41"/>
<path d="M468.631 375.659L461.99 375.658L458.83 350.36L468.632 350.36L468.631 375.659Z" fill="#FFB8B8"/>
<path d="M457.246 373.784H470.054V381.749H449.181C449.181 379.636 450.031 377.611 451.543 376.117C453.055 374.623 455.107 373.784 457.246 373.784Z" fill="#2F2E41"/>
<path d="M458.264 371.998L451.927 370.034L456.582 344.961L465.934 347.86L458.264 371.998Z" fill="#FFB8B8"/>
<path d="M447.969 366.843L460.19 370.631L457.775 378.23L437.86 372.058C438.5 370.042 439.925 368.361 441.821 367.383C443.717 366.405 445.928 366.211 447.969 366.843Z" fill="#2F2E41"/>
<path d="M510.442 318.31C510.288 317.035 510.013 315.777 509.618 314.554L508.378 313.013L505.149 309.012L505.008 309.017C504.77 309.028 503.778 309.081 502.245 309.199H502.229C501.281 309.274 500.122 309.37 498.805 309.493C498.459 309.531 498.096 309.563 497.722 309.6V315.185H504.494C504.823 315.186 505.14 315.304 505.388 315.519C505.635 315.733 505.794 316.029 505.837 316.352C505.842 316.411 505.848 316.464 505.848 316.523C505.848 316.878 505.705 317.218 505.451 317.468C505.197 317.719 504.853 317.86 504.494 317.86H465.164C464.663 318.189 464.182 318.546 463.723 318.93C462.338 319.99 461.339 321.466 460.879 323.135C458.582 333.108 454.395 351.704 453.16 357.166C453.07 357.578 453.09 358.005 453.219 358.407C453.347 358.808 453.579 359.17 453.891 359.456C454.122 359.668 454.392 359.834 454.687 359.943L459.574 361.751C459.775 361.825 459.984 361.873 460.197 361.896C460.224 361.896 460.245 361.901 460.273 361.901C460.323 361.905 460.374 361.907 460.424 361.906C460.918 361.904 461.4 361.755 461.807 361.478C462.214 361.202 462.527 360.81 462.705 360.355L466.562 350.361L472.505 334.953L474.856 328.86C477.581 329.491 500.442 334.488 508.096 326.436C508.851 325.643 509.447 324.715 509.851 323.702C510.495 321.981 510.698 320.128 510.442 318.31Z" fill="#2F2E41"/>
<path d="M517.072 319.765C516.953 319.289 516.818 318.797 516.661 318.299L512.191 312.757L512.051 312.762C511.769 312.778 510.431 312.848 508.378 313.013C506.048 313.206 502.792 313.516 499.136 314.003C499.028 314.014 498.914 314.03 498.805 314.046C498.448 314.094 498.085 314.142 497.722 314.196V315.185H504.494C504.823 315.186 505.14 315.304 505.387 315.519C505.635 315.734 505.794 316.03 505.837 316.352C505.842 316.411 505.848 316.464 505.848 316.523C505.848 316.878 505.705 317.218 505.451 317.469C505.197 317.719 504.853 317.86 504.494 317.86H480.56C479.515 318.197 478.507 318.551 477.543 318.93C472.483 320.91 468.696 323.505 467.922 326.88C467.662 328.015 467.375 329.261 467.071 330.588C465.944 335.521 464.574 341.561 463.333 347.05V347.055C463.079 348.189 462.824 349.291 462.58 350.361C461.545 354.962 460.668 358.862 460.202 360.911C460.191 360.97 460.181 361.024 460.17 361.083V361.093C460.116 361.508 460.168 361.929 460.321 362.318L460.327 362.324V362.329C460.476 362.702 460.718 363.031 461.031 363.287C461.24 363.457 461.476 363.593 461.73 363.688L466.616 365.496C466.888 365.597 467.176 365.649 467.467 365.651C467.874 365.652 468.275 365.551 468.631 365.357C469.143 365.083 469.539 364.637 469.747 364.1L480.267 336.837L481.898 332.605C484.623 333.236 507.484 338.228 515.138 330.181C516.651 328.565 517.514 326.459 517.565 324.259C517.619 322.745 517.453 321.232 517.072 319.765Z" fill="#2F2E41"/>
<path d="M516.471 272.568C516.384 272.466 516.292 272.365 516.195 272.268C514.752 270.77 512.97 269.631 510.996 268.944C509.021 268.257 506.91 268.041 504.835 268.315C503.025 268.549 501.231 268.898 499.466 269.358C497.186 269.937 495.099 271.093 493.41 272.712C492.094 273.972 491.058 275.488 490.367 277.164C489.676 278.84 489.345 280.64 489.396 282.449C489.417 283.182 489.423 283.931 489.412 284.691C489.412 285.044 489.406 285.402 489.401 285.761H494.742C494.974 285.76 495.205 285.787 495.43 285.841C496.082 285.995 496.663 286.361 497.078 286.88C497.494 287.399 497.721 288.041 497.722 288.703V313.591C498.085 313.693 498.448 313.794 498.805 313.901C498.919 313.939 499.028 313.971 499.136 314.003C499.26 314.04 499.385 314.078 499.504 314.115C500.604 314.452 501.678 314.809 502.727 315.185H504.494C504.823 315.186 505.14 315.304 505.387 315.519C505.635 315.733 505.794 316.029 505.837 316.352C506.205 316.496 506.563 316.64 506.915 316.785C508.166 317.299 509.353 317.812 510.442 318.31C511.91 318.973 513.215 319.604 514.31 320.155C514.654 320.329 515.034 320.42 515.42 320.423C515.927 320.421 516.421 320.26 516.829 319.963C516.913 319.901 516.995 319.835 517.072 319.765C517.362 319.496 517.581 319.162 517.711 318.791C517.84 318.42 517.876 318.023 517.814 317.636C517.255 313.433 517.092 309.188 517.327 304.956C517.478 301.399 517.804 297.75 518.226 294.224C518.454 292.314 518.708 290.442 518.974 288.639C519.229 286.916 519.499 285.263 519.765 283.701C520.113 281.72 519.997 279.687 519.426 277.757C518.855 275.827 517.844 274.052 516.471 272.568Z" fill="#7F39FB"/>
<path d="M494.266 273.007C493.988 272.889 493.702 272.79 493.41 272.712C491.966 272.328 490.431 272.47 489.084 273.111C487.738 273.753 486.669 274.851 486.075 276.206L482.353 284.691L481.887 285.761H494.742C494.974 285.76 495.205 285.787 495.43 285.841L495.864 284.851L497.511 281.096C498.165 279.598 498.19 277.905 497.582 276.388C496.974 274.872 495.781 273.656 494.266 273.007Z" fill="#7F39FB"/>
<path d="M505.824 264.137C513.172 264.137 519.129 258.254 519.129 250.997C519.129 243.74 513.172 237.857 505.824 237.857C498.476 237.857 492.519 243.74 492.519 250.997C492.519 258.254 498.476 264.137 505.824 264.137Z" fill="#FFB8B8"/>
<path d="M492.279 244.541C498.581 248.341 505.687 250.653 513.041 251.298L510.853 248.708C512.446 249.29 514.123 249.619 515.821 249.682C517.517 249.656 519.293 249.011 520.256 247.632C520.685 246.947 520.94 246.169 520.999 245.365C521.058 244.561 520.919 243.755 520.594 243.015C519.927 241.54 518.889 240.258 517.579 239.292C515.256 237.477 512.515 236.258 509.6 235.744C506.684 235.229 503.685 235.435 500.87 236.343C498.939 236.913 497.209 238.008 495.879 239.504C494.618 241.041 492.19 242.41 492.835 244.282L492.279 244.541Z" fill="#2F2E41"/>
<path d="M508.061 233.937C503.865 229.735 498.786 226.492 493.184 224.436C489.587 223.121 485.673 222.308 481.913 223.055C478.153 223.802 474.598 226.371 473.549 230.014C472.691 232.993 473.577 236.2 474.908 239.005C476.239 241.809 478.016 244.41 479.092 247.318C480.191 250.287 480.521 253.479 480.053 256.605C479.586 259.731 478.335 262.692 476.414 265.22C474.494 267.748 471.964 269.762 469.056 271.079C466.147 272.396 462.951 272.976 459.759 272.764C463.453 273.253 466.858 274.968 470.469 275.88C474.08 276.793 478.342 276.731 481.025 274.176C483.864 271.473 483.921 267.078 483.784 263.186C483.58 257.4 483.376 251.614 483.172 245.828C483.068 242.877 482.979 239.832 484.056 237.078C485.134 234.324 487.695 231.912 490.684 231.937C492.95 231.956 494.955 233.312 496.772 234.649C498.59 235.986 500.513 237.412 502.77 237.611C505.027 237.81 507.604 236.16 507.435 233.929L508.061 233.937Z" fill="#2F2E41"/>
<path d="M518.974 288.639L511.379 288.842L510.826 294.112L510.702 295.332L498.805 300.607L497.722 301.088V310.467L498.805 310.162L502.229 309.199H502.245L517.327 304.956L517.5 304.908C518.719 304.561 519.791 303.834 520.559 302.837C521.326 301.839 521.746 300.624 521.758 299.371L521.796 293.149L521.829 288.564L518.974 288.639Z" fill="#FFB8B8"/>
<path d="M521.444 278.217C521.343 276.589 520.59 275.066 519.353 273.985C518.115 272.904 516.493 272.353 514.843 272.453C513.194 272.553 511.652 273.296 510.558 274.518C509.463 275.741 508.905 277.343 509.006 278.972L509.835 292.325C509.857 292.677 509.958 293.019 510.129 293.328C510.3 293.637 510.538 293.904 510.826 294.112C511.284 294.449 511.849 294.614 512.419 294.578L518.226 294.224L519.987 294.117C520.308 294.102 520.622 294.022 520.91 293.883C521.199 293.745 521.456 293.549 521.666 293.31C521.713 293.259 521.756 293.205 521.796 293.149C522.141 292.694 522.309 292.133 522.273 291.566L521.444 278.217Z" fill="#7F39FB"/>
<path d="M499.504 314.115H498.805V314.046C498.448 314.094 498.085 314.142 497.722 314.196V315.185H502.727C501.676 314.811 500.602 314.454 499.504 314.115ZM499.504 314.115H498.805V314.046C498.448 314.094 498.085 314.142 497.722 314.196V315.185H502.727C501.676 314.811 500.602 314.454 499.504 314.115ZM504.494 314.115H498.805V288.703C498.803 287.833 498.516 286.987 497.985 286.293C497.455 285.598 496.71 285.092 495.864 284.851C495.5 284.743 495.122 284.689 494.743 284.691H446.529C445.452 284.692 444.419 285.115 443.658 285.867C442.896 286.62 442.467 287.64 442.466 288.703V314.918C442.467 315.982 442.895 317.002 443.657 317.755C444.418 318.507 445.452 318.93 446.529 318.93H504.494C505.094 318.929 505.672 318.71 506.119 318.314C506.566 317.919 506.849 317.374 506.915 316.785C506.926 316.698 506.931 316.611 506.931 316.523C506.93 315.885 506.673 315.273 506.216 314.822C505.759 314.37 505.14 314.116 504.494 314.115ZM505.848 316.523C505.848 316.878 505.705 317.218 505.451 317.469C505.197 317.719 504.853 317.86 504.494 317.86H446.529C445.739 317.86 444.981 317.55 444.423 316.998C443.864 316.446 443.55 315.698 443.55 314.918V288.703C443.55 287.923 443.864 287.175 444.423 286.623C444.981 286.071 445.739 285.761 446.529 285.761H494.743C494.974 285.76 495.205 285.787 495.431 285.841C496.082 285.995 496.663 286.361 497.078 286.88C497.494 287.399 497.721 288.041 497.722 288.703V315.185H504.494C504.823 315.186 505.14 315.304 505.388 315.519C505.635 315.734 505.794 316.03 505.837 316.352C505.842 316.411 505.848 316.464 505.848 316.523ZM499.504 314.115H498.805V314.046C498.448 314.094 498.085 314.142 497.722 314.196V315.185H502.727C501.676 314.811 500.602 314.454 499.504 314.115Z" fill="#3F3D56"/>
<path d="M470.634 305.021C472.429 305.021 473.884 303.584 473.884 301.811C473.884 300.039 472.429 298.601 470.634 298.601C468.839 298.601 467.384 300.039 467.384 301.811C467.384 303.584 468.839 305.021 470.634 305.021Z" fill="#7F39FB"/>
<path d="M180.315 38.1814C180.303 38.4258 180.31 38.6708 180.337 38.9141L163.326 53.0133L158.253 51.1993L154.481 58.4023L165.572 63.616L184.169 43.0061C185.108 43.1744 186.077 43.0563 186.946 42.6676C187.816 42.2789 188.545 41.638 189.036 40.8301C189.528 40.0223 189.759 39.0857 189.698 38.1451C189.638 37.2044 189.289 36.3042 188.698 35.5642C188.107 34.8242 187.302 34.2794 186.389 34.0024C185.477 33.7253 184.501 33.7291 183.591 34.0132C182.681 34.2973 181.88 34.8483 181.295 35.5928C180.71 36.3374 180.368 37.2403 180.315 38.1814L180.315 38.1814Z" fill="#FFB8B8"/>
<path d="M157.5 61.8573L141.073 56.0017C139.565 55.4641 138.335 54.3569 137.653 52.9236C136.972 51.4903 136.895 49.8484 137.439 48.3591C137.983 46.8697 139.104 45.6549 140.556 44.9819C142.007 44.3089 143.67 44.2328 145.178 44.7704L161.605 50.6261C161.854 50.7147 162.083 50.851 162.278 51.027C162.474 51.203 162.632 51.4154 162.745 51.6519C162.857 51.8885 162.921 52.1446 162.934 52.4056C162.946 52.6667 162.906 52.9275 162.816 53.1733L160.08 60.6611C159.898 61.1571 159.524 61.5615 159.04 61.7858C158.557 62.01 158.003 62.0358 157.5 61.8573V61.8573Z" fill="#CCCCCC"/>
<path d="M145.469 118.903L150.959 118.903L153.571 97.9899L145.468 97.9904L145.469 118.903Z" fill="#FFB8B8"/>
<path d="M161.547 123.937L144.293 123.938L144.293 117.354L154.88 117.354C156.648 117.354 158.344 118.047 159.594 119.282C160.845 120.516 161.547 122.191 161.547 123.937L161.547 123.937Z" fill="#2F2E41"/>
<path d="M131.901 111.899L136.392 115.018L150.709 99.3942L144.081 94.7922L131.901 111.899Z" fill="#FFB8B8"/>
<path d="M141.58 124.08L127.465 114.28L131.299 108.894L139.961 114.908C141.407 115.912 142.39 117.443 142.694 119.163C142.997 120.883 142.597 122.652 141.58 124.08L141.58 124.08Z" fill="#2F2E41"/>
<path d="M157.482 81.2313C157.482 81.2313 171.183 79.6349 168.724 88.415C166.265 97.195 138.863 104.778 138.863 104.778L157.482 81.2313Z" fill="#FFB8B8"/>
<path d="M148.052 36.4313C154.126 36.4313 159.051 31.5682 159.051 25.5693C159.051 19.5704 154.126 14.7074 148.052 14.7074C141.978 14.7074 137.054 19.5704 137.054 25.5693C137.054 31.5682 141.978 36.4313 148.052 36.4313Z" fill="#FFB8B8"/>
<path d="M112.977 102.98C106.718 95.783 104.528 84.7378 114.509 75.5513C116.974 73.3383 119.765 71.5078 122.786 70.1226L130.83 47.9068C131.666 45.587 133.198 43.5738 135.222 42.136C137.246 40.6982 139.665 39.9041 142.158 39.8597C144.579 39.7565 146.972 40.3958 149.01 41.69C151.047 42.9841 152.629 44.8694 153.538 47.0871C154.52 49.3433 154.633 51.8764 153.854 54.2088C151.46 61.5731 148.315 68.6786 144.469 75.4161L144.885 78.7023L165.216 80.4868L165.027 80.7913C164.928 80.9502 154.977 95.923 142.247 105.861C137.895 109.259 133.394 110.668 129.146 110.667C122.704 110.667 116.845 107.428 112.977 102.98Z" fill="#CCCCCC"/>
<path d="M111.058 28.977C113.004 26.6872 113.838 23.692 114.51 20.7772C115.572 16.1651 116.394 11.3961 118.754 7.2803C121.114 3.1646 125.452 -0.245679 130.234 0.0139051C134.989 0.272007 138.833 4.04996 140.873 8.34852C141.368 8.159 141.896 8.07409 142.426 8.0993C142.955 8.12451 143.474 8.25928 143.947 8.49487C145.418 9.29023 145.968 11.5509 144.743 12.6826C146.031 12.0771 147.433 11.7461 148.859 11.711C150.284 11.6759 151.701 11.9375 153.018 12.4789C154.711 13.1906 156.172 14.3497 157.241 15.8286C158.31 17.3075 158.945 19.0489 159.076 20.8613C159.128 21.5969 159.025 22.335 158.776 23.03C158.526 23.725 158.135 24.362 157.626 24.9015C155.516 27.0469 152.531 26.3069 149.878 25.7603C147.371 25.2441 144.318 25.1048 142.906 27.4634C142.349 28.4462 142.193 29.6017 142.47 30.6941C143.011 33.0486 144.776 34.6887 146.489 36.2583L146.769 36.7721C140.722 37.9366 134.12 33.8585 132.534 27.9798C130.947 22.1011 134.62 15.3192 140.452 13.3581C140.063 13.37 139.679 13.2794 139.338 13.0955C138.998 12.9117 138.713 12.6414 138.513 12.3124C138.314 11.9835 138.207 11.6079 138.203 11.2244C138.2 10.841 138.3 10.4636 138.494 10.1312C136.88 9.23818 135.053 8.78806 133.203 8.82761C130.191 9.02276 127.584 11.1403 126.016 13.688C124.449 16.2357 123.739 19.1928 123.02 22.0881C122.301 24.9835 121.523 27.9343 119.846 30.4137C118.685 32.131 117.134 33.5565 115.316 34.5765C113.498 35.5965 111.464 36.1828 109.376 36.2886C107.288 36.3944 105.204 36.0167 103.29 35.1857C101.376 34.3547 99.6848 33.0935 98.3521 31.5025C100.458 32.5111 102.841 32.8103 105.136 32.3542C107.431 31.898 109.511 30.7118 111.058 28.977Z" fill="#2F2E41"/>
<path d="M191.84 58.5783C200.67 58.5783 207.827 51.5095 207.827 42.7897C207.827 34.0699 200.67 27.0011 191.84 27.0011C183.011 27.0011 175.853 34.0699 175.853 42.7897C175.853 51.5095 183.011 58.5783 191.84 58.5783Z" fill="#7F39FB"/>
<path d="M191.349 51.6691C191.284 51.6054 191.233 51.5298 191.198 51.4465C191.163 51.3632 191.145 51.2739 191.145 51.1837V33.7092C191.145 33.5272 191.218 33.3526 191.349 33.2239C191.479 33.0951 191.656 33.0228 191.84 33.0228C192.024 33.0228 192.201 33.0951 192.332 33.2239C192.462 33.3526 192.535 33.5272 192.535 33.7092V51.1837C192.535 51.3195 192.494 51.4522 192.418 51.565C192.342 51.6779 192.233 51.7659 192.106 51.8178C191.979 51.8698 191.839 51.8834 191.704 51.8569C191.57 51.8305 191.446 51.7651 191.349 51.6691H191.349Z" fill="white"/>
<path d="M182.501 42.9319C182.404 42.8359 182.338 42.7136 182.311 42.5805C182.284 42.4473 182.298 42.3093 182.351 42.1839C182.403 42.0585 182.493 41.9513 182.607 41.8758C182.721 41.8004 182.855 41.7601 182.993 41.7601H200.687C200.872 41.7601 201.048 41.8325 201.179 41.9612C201.309 42.0899 201.382 42.2645 201.382 42.4465C201.382 42.6286 201.309 42.8032 201.179 42.9319C201.048 43.0606 200.872 43.1329 200.687 43.1329H182.993C182.902 43.1331 182.811 43.1154 182.727 43.0809C182.643 43.0464 182.566 42.9958 182.501 42.9319Z" fill="white"/>
<path d="M180.866 53.3502C180.75 53.5664 180.651 53.7913 180.571 54.0228L159.105 59.6445L155.293 55.8732L148.779 60.8096L156.574 70.1844L182.278 59.3352C183.056 59.8816 183.983 60.1814 184.938 60.1945C185.892 60.2076 186.828 59.9335 187.62 59.4086C188.413 58.8837 189.025 58.133 189.375 57.2561C189.725 56.3793 189.797 55.418 189.58 54.5C189.364 53.5821 188.87 52.7509 188.163 52.1172C187.457 51.4835 186.571 51.0773 185.625 50.9524C184.679 50.8276 183.717 50.9902 182.867 51.4185C182.017 51.8468 181.319 52.5206 180.866 53.3502L180.866 53.3502Z" fill="#FFB8B8"/>
<path d="M150.025 65.2044L137.675 53.0086C137.113 52.4546 136.666 51.7963 136.361 51.0716C136.056 50.3468 135.898 49.5698 135.897 48.7849C135.897 48 136.053 47.2227 136.357 46.4974C136.661 45.7722 137.106 45.1132 137.668 44.5582C138.23 44.0032 138.897 43.5631 139.632 43.263C140.366 42.963 141.153 42.8089 141.948 42.8096C142.743 42.8102 143.53 42.9657 144.263 43.267C144.997 43.5682 145.664 44.0095 146.225 44.5654L158.574 56.7612C158.761 56.946 158.91 57.1653 159.011 57.4068C159.112 57.6482 159.164 57.907 159.164 58.1683C159.164 58.4296 159.112 58.6884 159.011 58.9298C158.91 59.1712 158.761 59.3906 158.574 59.5753L152.875 65.2044C152.496 65.577 151.984 65.7862 151.45 65.7862C150.915 65.7862 150.403 65.577 150.025 65.2044V65.2044Z" fill="#CCCCCC"/>
</g>
<defs>
<clipPath id="clip0">
<rect width="535" height="382" fill="white"/>
</clipPath>
</defs>
</svg>
