<svg width="466" height="388" viewBox="0 0 466 388" fill="none" xmlns="http://www.w3.org/2000/svg">
<g clip-path="url(#clip0)">
<path d="M440.225 124.119C440.225 140.269 436.394 153.562 429.747 164.949C427.553 168.7 425.062 172.27 422.299 175.625C397.863 205.458 352.433 221.786 311.373 248.234C190.171 326.303 177.042 201.206 182.516 124.119C184.724 93.015 196.859 64.5232 216.138 42.7078C220.187 38.1197 224.561 33.8276 229.225 29.8647C251.112 11.259 279.389 0 311.373 0C366.247 0 413.108 33.0376 431.688 79.5933C437.336 93.7607 440.234 108.871 440.225 124.119Z" fill="#7F39FB"/>
<path d="M338.826 27.9729L216.138 42.7078C220.187 38.1197 224.561 33.8276 229.225 29.8647L338.826 27.9729Z" fill="#D0CDE1"/>
<path d="M429.747 164.949C427.553 168.7 425.062 172.27 422.299 175.625L317.206 163.007L429.747 164.949Z" fill="#D0CDE1"/>
<path d="M435.975 92.3951L257.865 69.3354L431.688 79.5933C433.357 83.7766 434.788 88.0507 435.975 92.3951Z" fill="#D0CDE1"/>
<path d="M194.598 33.0615C194.598 33.3784 194.589 33.6906 194.561 33.9983C194.422 35.9051 193.858 37.7569 192.911 39.4188C191.964 41.0808 190.658 42.5109 189.087 43.6052C187.517 44.6994 185.721 45.4301 183.832 45.7442C181.943 46.0582 180.007 45.9477 178.166 45.4205C176.325 44.8934 174.624 43.963 173.189 42.697C171.754 41.4311 170.619 39.8615 169.868 38.1026C169.118 36.3437 168.769 34.4398 168.849 32.5296C168.928 30.6193 169.434 28.7508 170.328 27.0601C170.605 26.5303 170.922 26.0223 171.276 25.5403C172.816 23.4078 174.974 21.7981 177.46 20.9283C179.945 20.0586 182.638 19.9707 185.175 20.6763C187.712 21.382 189.972 22.8474 191.648 24.8749C193.325 26.9023 194.338 29.3943 194.552 32.0146C194.584 32.359 194.598 32.708 194.598 33.0615Z" fill="#7F39FB"/>
<path d="M194.598 33.0615C194.598 33.3784 194.589 33.6906 194.561 33.9983L175.278 31.684L194.552 32.0146C194.584 32.359 194.598 32.708 194.598 33.0615Z" fill="#D0CDE1"/>
<path d="M189.998 39.5405L172.159 41.6848C171.653 41.1214 171.197 40.5144 170.797 39.8711L189.998 39.5405Z" fill="#D0CDE1"/>
<path d="M184.938 25.3061L170.328 27.0601C170.605 26.5303 170.922 26.0222 171.276 25.5403L184.938 25.3061Z" fill="#D0CDE1"/>
<path d="M371.118 264.543C370.969 264.823 370.814 265.095 370.645 265.353C369.627 266.973 368.259 268.345 366.642 269.369C365.025 270.394 363.2 271.046 361.298 271.278C359.397 271.51 357.468 271.315 355.652 270.708C353.835 270.102 352.177 269.098 350.799 267.771C349.42 266.444 348.355 264.826 347.682 263.037C347.008 261.247 346.743 259.329 346.906 257.424C347.069 255.519 347.655 253.675 348.623 252.025C349.59 250.374 350.914 248.96 352.498 247.885C352.991 247.547 353.51 247.247 354.049 246.986C356.411 245.823 359.073 245.412 361.677 245.806C364.281 246.201 366.701 247.383 368.611 249.194C370.52 251.005 371.828 253.356 372.357 255.932C372.886 258.507 372.611 261.182 371.569 263.597C371.435 263.916 371.284 264.231 371.118 264.543Z" fill="#7F39FB"/>
<path d="M371.118 264.543C370.969 264.823 370.814 265.095 370.645 265.353L354.699 254.286L371.569 263.597C371.435 263.916 371.284 264.231 371.118 264.543Z" fill="#D0CDE1"/>
<path d="M364.012 268.114L347.247 261.66C347.064 260.926 346.947 260.176 346.896 259.421L364.012 268.114Z" fill="#D0CDE1"/>
<path d="M366.227 253.172L352.498 247.885C352.991 247.547 353.51 247.247 354.049 246.986L366.227 253.172Z" fill="#D0CDE1"/>
<path d="M462.342 42.911C462.564 43.1379 462.776 43.3678 462.971 43.6073C464.205 45.0695 465.097 46.788 465.582 48.6378C466.066 50.4875 466.131 52.4218 465.772 54.2998C465.413 56.1779 464.639 57.9523 463.506 59.4939C462.373 61.0355 460.91 62.3054 459.223 63.2112C457.536 64.117 455.668 64.6358 453.755 64.7299C451.842 64.8239 449.932 64.4909 448.165 63.755C446.397 63.019 444.816 61.8988 443.536 60.4758C442.257 59.0528 441.312 57.3629 440.77 55.5292C440.597 54.9569 440.469 54.3724 440.385 53.7807C439.996 51.1805 440.415 48.5239 441.586 46.169C442.757 43.8141 444.624 41.8744 446.934 40.6114C449.244 39.3484 451.886 38.823 454.504 39.1059C457.123 39.3888 459.592 40.4665 461.577 42.1936C461.841 42.4177 462.095 42.6579 462.342 42.911Z" fill="#7F39FB"/>
<path d="M462.343 42.911C462.564 43.1379 462.776 43.3678 462.971 43.6073L447.548 55.3899L461.577 42.1936C461.841 42.4177 462.095 42.6579 462.343 42.911Z" fill="#D0CDE1"/>
<path d="M463.581 50.7553L452.31 64.7231C451.553 64.6726 450.803 64.5557 450.067 64.3736L463.581 50.7553Z" fill="#D0CDE1"/>
<path d="M450.002 44.0914L440.77 55.5292C440.597 54.9569 440.469 54.3724 440.385 53.7807L450.002 44.0914Z" fill="#D0CDE1"/>
<path d="M220.702 279.845C220.702 279.845 248.967 281.021 248.967 288.075C248.967 295.128 217.169 288.075 217.169 288.075L220.702 279.845Z" fill="#A0616A"/>
<path d="M178.304 388L125.306 384.473L122.951 356.259L111.174 380.946L59.3539 373.893C60.5317 329.22 79.3753 285.723 80.553 279.845C81.7307 273.967 84.5455 249.68 84.5455 249.68C89.6921 238.782 116.662 237.759 137.802 238.747C146.564 239.146 154.337 239.899 159.131 240.439C162.299 240.792 164.171 241.051 164.171 241.051C172.615 249.738 178.057 261.577 181.401 274.802C193.461 322.449 178.304 388 178.304 388Z" fill="#2F2E41"/>
<path d="M119.418 115.262C135.679 115.262 148.861 102.104 148.861 85.8725C148.861 69.6409 135.679 56.4826 119.418 56.4826C103.157 56.4826 89.9747 69.6409 89.9747 85.8725C89.9747 102.104 103.157 115.262 119.418 115.262Z" fill="#A0616A"/>
<path d="M99.3965 92.926C99.3965 92.926 91.1525 129.369 78.1975 139.95C65.2425 150.53 128.84 139.95 128.84 139.95C128.84 139.95 114.707 116.438 125.306 105.858C135.906 95.2772 99.3965 92.926 99.3965 92.926Z" fill="#A0616A"/>
<path d="M159.46 243.402L139.922 245.565L85.2639 251.631C85.2639 251.631 85.0048 250.938 84.5455 249.68C80.5766 238.876 61.4621 186.303 59.354 170.515C56.9985 152.881 81.7307 131.721 81.7307 131.721C81.7307 131.721 105.285 127.018 112.351 127.018C119.418 127.018 147.683 137.599 147.683 137.599L158.224 232.246L159.131 240.439L159.46 243.402Z" fill="#D0CDE1"/>
<path opacity="0.15" d="M181.401 274.802L141.795 251.631C141.795 251.631 141.1 249.374 139.922 245.565C139.333 243.661 138.615 241.356 137.802 238.747C133.232 224.099 125.565 199.928 119.418 182.271C109.996 155.232 155.927 230.47 155.927 230.47L158.224 232.246L159.131 240.439C162.299 240.792 164.171 241.051 164.171 241.051C172.615 249.738 178.057 261.577 181.401 274.802Z" fill="black"/>
<path d="M128.84 139.95C128.84 139.95 117.062 155.232 126.484 182.271C135.906 209.31 148.861 251.631 148.861 251.631L217.169 291.601L226.591 279.845L162.994 230.47C162.994 230.47 160.638 141.125 148.861 137.599C137.084 134.072 128.84 139.95 128.84 139.95Z" fill="#D0CDE1"/>
<path d="M70.5423 242.814C70.5423 242.814 87.0304 276.906 94.0967 273.38C101.163 269.853 76.4309 234.585 76.4309 234.585L70.5423 242.814Z" fill="#A0616A"/>
<path d="M68.7757 149.354L6.3564 201.081C6.3564 201.081 -17.1981 217.539 26.3777 229.295C69.9535 241.051 73.4866 248.104 73.4866 248.104C73.4866 248.104 78.1975 232.822 84.0861 235.173L33.444 210.485L74.6643 185.798L68.7757 149.354Z" fill="#D0CDE1"/>
<path d="M43.6888 109.995C46.9648 108.375 54.1989 105.107 60.3609 101.169C59.9288 88.3594 61.5091 76.7308 66.135 70.5669C68.7316 64.6818 74.1842 58.7899 78.4546 54.1499C88.9419 42.7553 112.132 36.3949 116.244 42.0881C147.353 42.7011 150.627 67.041 150.627 67.041C150.466 77.2218 139.865 77.5439 130.58 77.173C131.411 84.1232 129.195 91.345 122.778 94.5477C110.507 100.672 106.826 108.634 112.961 114.146C119.097 119.658 130.141 134.357 115.415 138.032C100.69 141.706 98.8493 149.056 103.144 152.118C107.439 155.18 93.3273 146.606 93.3273 146.606C93.3273 146.606 90.8731 161.305 77.9884 157.63C76.8337 157.301 75.6797 156.457 74.5451 155.195C71.0652 159.011 67.9608 161.268 65.6211 161.28C52.221 161.351 53.8279 146.537 53.8279 146.537C53.8279 146.537 37.9227 150.995 42.8857 149.202C47.8487 147.409 48.0613 139.837 34.8738 132.335C21.6863 124.833 36.2915 113.651 43.6888 109.995Z" fill="#2F2E41"/>
<path d="M208.099 148.396L207.886 148.368L208.407 150.346C208.9 153.104 209.615 155.819 210.546 158.462L225.83 216.46C226.318 218.311 227.337 219.98 228.761 221.261C230.185 222.542 231.954 223.381 233.849 223.673L265.018 228.487C267.034 228.798 269.096 228.477 270.921 227.568C272.746 226.659 274.243 225.207 275.206 223.412L304.827 168.184C305.753 166.654 306.599 165.077 307.361 163.46L308.367 161.585L308.21 161.564C311.35 154.15 312.732 146.111 312.249 138.076C311.765 130.041 309.429 122.225 305.423 115.239C301.416 108.253 295.848 102.284 289.151 97.7995C282.454 93.3145 274.81 90.4338 266.814 89.3822C258.819 88.3305 250.688 89.1362 243.056 91.7365C235.424 94.3367 228.496 98.6612 222.814 104.373C217.131 110.085 212.846 117.029 210.294 124.665C207.742 132.302 206.991 140.423 208.099 148.396H208.099Z" fill="#3F3D56"/>
<path d="M266.931 232.276C266.382 232.276 265.834 232.234 265.292 232.15L232.71 227.118C230.641 226.799 228.71 225.884 227.155 224.484C225.599 223.085 224.487 221.263 223.955 219.241L207.978 158.618C207.002 155.843 206.252 152.994 205.735 150.098L205.33 147.446C204.243 138.973 205.144 130.364 207.962 122.298C210.779 114.233 215.437 106.931 221.566 100.97C227.695 95.0093 235.128 90.5521 243.279 87.9504C251.43 85.3487 260.075 84.6738 268.532 85.979L268.391 86.8865C260.026 85.5999 251.476 86.2823 243.422 88.8795C235.368 91.4766 228.034 95.9166 222.005 101.845C215.975 107.774 211.417 115.027 208.694 123.026C205.971 131.025 205.159 139.549 206.322 147.917L206.632 149.9C207.145 152.772 207.89 155.597 208.857 158.349L224.845 219.008C225.331 220.856 226.348 222.523 227.771 223.802C229.193 225.082 230.959 225.919 232.851 226.211L265.432 231.242C267.445 231.551 269.503 231.23 271.325 230.322C273.147 229.415 274.642 227.966 275.605 226.175L276.416 226.608C275.496 228.32 274.128 229.751 272.458 230.749C270.787 231.747 268.878 232.275 266.931 232.276Z" fill="#D0CDE1"/>
<path d="M275.196 161.579L255.371 215.61L256.489 216.019L276.313 161.988L275.196 161.579Z" fill="#D0CDE1"/>
<path d="M242.827 156.58L241.638 156.632L244.169 214.117L245.357 214.065L242.827 156.58Z" fill="#D0CDE1"/>
<path d="M264.177 259.76L222.428 253.313C222.118 253.263 221.84 253.093 221.655 252.839C221.47 252.585 221.393 252.269 221.441 251.959C221.489 251.648 221.658 251.37 221.911 251.184C222.164 250.998 222.481 250.919 222.792 250.965L264.541 257.412C264.696 257.435 264.845 257.489 264.979 257.569C265.114 257.65 265.231 257.757 265.324 257.883C265.417 258.009 265.484 258.152 265.521 258.304C265.559 258.456 265.566 258.614 265.542 258.769C265.518 258.924 265.463 259.072 265.382 259.206C265.3 259.339 265.193 259.456 265.066 259.548C264.939 259.64 264.795 259.706 264.643 259.742C264.49 259.779 264.332 259.785 264.177 259.76Z" fill="#3F3D56"/>
<path d="M265.247 250.91L223.499 244.463C223.343 244.44 223.194 244.387 223.06 244.306C222.926 244.225 222.808 244.119 222.715 243.993C222.622 243.867 222.555 243.724 222.518 243.572C222.48 243.419 222.474 243.261 222.498 243.107C222.522 242.952 222.576 242.804 222.658 242.67C222.739 242.536 222.847 242.42 222.973 242.328C223.1 242.236 223.244 242.17 223.397 242.133C223.549 242.097 223.708 242.091 223.862 242.116L265.611 248.563C265.767 248.586 265.916 248.639 266.05 248.72C266.184 248.8 266.301 248.907 266.394 249.033C266.487 249.159 266.555 249.302 266.592 249.454C266.629 249.606 266.636 249.764 266.612 249.919C266.588 250.074 266.534 250.222 266.452 250.356C266.371 250.49 266.263 250.606 266.136 250.698C266.01 250.79 265.866 250.856 265.713 250.893C265.561 250.929 265.402 250.935 265.247 250.91Z" fill="#3F3D56"/>
<path d="M266.318 242.061L224.569 235.614C224.259 235.564 223.981 235.394 223.796 235.14C223.611 234.886 223.534 234.569 223.582 234.259C223.63 233.949 223.799 233.671 224.052 233.484C224.305 233.298 224.622 233.22 224.933 233.266L266.682 239.713C266.992 239.763 267.27 239.933 267.455 240.187C267.64 240.441 267.717 240.757 267.669 241.067C267.621 241.377 267.452 241.656 267.199 241.842C266.946 242.028 266.629 242.107 266.318 242.061H266.318Z" fill="#3F3D56"/>
<path d="M242.005 264.91C250.286 266.189 257.713 262.618 258.594 256.935L228.605 252.304C227.724 257.987 233.724 263.631 242.005 264.91Z" fill="#3F3D56"/>
<path d="M257.012 150.196C255.23 149.921 253.757 148.515 252.949 147.573C252.684 147.265 252.426 146.944 252.167 146.623C251.226 145.454 250.338 144.35 249.101 143.774C246.37 142.502 243.152 144.279 240.366 146.185L239.693 145.205C242.756 143.109 246.328 141.173 249.604 142.697C251.092 143.39 252.11 144.656 253.095 145.879C253.346 146.191 253.596 146.501 253.852 146.801C254.693 147.78 256.368 149.367 258.164 149.001C258.92 148.781 259.624 148.409 260.231 147.908C260.694 147.563 261.184 147.255 261.695 146.987C262.732 146.49 263.892 146.311 265.03 146.472C266.169 146.633 267.234 147.126 268.092 147.889C268.398 148.179 268.688 148.484 268.96 148.806C269.496 149.415 270.001 149.99 270.659 150.199C271.631 150.509 272.659 149.954 273.749 149.368C274.872 148.763 276.033 148.137 277.35 148.291C277.393 148.296 277.436 148.302 277.479 148.309C279.823 148.671 280.904 151.258 281.515 153.189L280.38 153.547C279.549 150.922 278.537 149.617 277.211 149.471C276.267 149.36 275.319 149.872 274.314 150.413C273.055 151.092 271.751 151.793 270.298 151.33C269.325 151.021 268.684 150.293 268.066 149.589C267.822 149.301 267.562 149.026 267.289 148.766C266.605 148.168 265.762 147.782 264.863 147.656C263.963 147.529 263.046 147.666 262.223 148.051C261.768 148.293 261.331 148.569 260.918 148.878C260.18 149.479 259.323 149.918 258.402 150.165C257.944 150.258 257.473 150.268 257.012 150.196Z" fill="#D0CDE1"/>
</g>
<defs>
<clipPath id="clip0">
<rect width="466" height="388" fill="white"/>
</clipPath>
</defs>
</svg>
